<mxfile host="app.diagrams.net" modified="2023-12-05T14:30:30.739Z" agent="Mozilla/5.0 (Windows NT 10.0; Win64; x64) AppleWebKit/537.36 (KHTML, like Gecko) Chrome/119.0.0.0 Safari/537.36" etag="Pmemof-n8MlRkfwtKUja" version="22.1.5" type="device">
  <diagram id="C5RBs43oDa-KdzZeNtuy" name="Page-1">
    <mxGraphModel dx="2074" dy="1118" grid="1" gridSize="10" guides="1" tooltips="1" connect="1" arrows="1" fold="1" page="1" pageScale="1" pageWidth="827" pageHeight="1169" math="0" shadow="0">
      <root>
        <mxCell id="WIyWlLk6GJQsqaUBKTNV-0" />
        <mxCell id="WIyWlLk6GJQsqaUBKTNV-1" parent="WIyWlLk6GJQsqaUBKTNV-0" />
        <mxCell id="2lc9LxFarBskipOYGkbM-63" style="edgeStyle=orthogonalEdgeStyle;rounded=0;orthogonalLoop=1;jettySize=auto;html=1;entryX=0.5;entryY=0;entryDx=0;entryDy=0;strokeWidth=3;fontSize=15;" edge="1" parent="WIyWlLk6GJQsqaUBKTNV-1" source="2lc9LxFarBskipOYGkbM-61" target="2lc9LxFarBskipOYGkbM-62">
          <mxGeometry relative="1" as="geometry" />
        </mxCell>
        <mxCell id="2lc9LxFarBskipOYGkbM-61" value="Start" style="ellipse;whiteSpace=wrap;html=1;strokeWidth=3;fontSize=15;" vertex="1" parent="WIyWlLk6GJQsqaUBKTNV-1">
          <mxGeometry x="570" y="70" width="120" height="110" as="geometry" />
        </mxCell>
        <mxCell id="2lc9LxFarBskipOYGkbM-66" style="edgeStyle=orthogonalEdgeStyle;rounded=0;orthogonalLoop=1;jettySize=auto;html=1;entryX=0.5;entryY=0;entryDx=0;entryDy=0;strokeWidth=3;fontSize=15;" edge="1" parent="WIyWlLk6GJQsqaUBKTNV-1" source="2lc9LxFarBskipOYGkbM-62" target="2lc9LxFarBskipOYGkbM-65">
          <mxGeometry relative="1" as="geometry" />
        </mxCell>
        <mxCell id="2lc9LxFarBskipOYGkbM-62" value="Generated&lt;br style=&quot;font-size: 15px;&quot;&gt;Random number" style="shape=parallelogram;perimeter=parallelogramPerimeter;whiteSpace=wrap;html=1;fixedSize=1;strokeWidth=3;fontSize=15;" vertex="1" parent="WIyWlLk6GJQsqaUBKTNV-1">
          <mxGeometry x="540" y="250" width="180" height="80" as="geometry" />
        </mxCell>
        <mxCell id="2lc9LxFarBskipOYGkbM-65" value="" style="verticalLabelPosition=bottom;verticalAlign=top;html=1;shape=process;whiteSpace=wrap;rounded=1;size=0.14;arcSize=6;strokeWidth=3;fontSize=15;" vertex="1" parent="WIyWlLk6GJQsqaUBKTNV-1">
          <mxGeometry x="560" y="380" width="140" height="90" as="geometry" />
        </mxCell>
        <mxCell id="2lc9LxFarBskipOYGkbM-69" style="edgeStyle=orthogonalEdgeStyle;rounded=0;orthogonalLoop=1;jettySize=auto;html=1;entryX=0.5;entryY=0;entryDx=0;entryDy=0;strokeWidth=3;fontSize=15;" edge="1" parent="WIyWlLk6GJQsqaUBKTNV-1" source="2lc9LxFarBskipOYGkbM-67" target="2lc9LxFarBskipOYGkbM-68">
          <mxGeometry relative="1" as="geometry" />
        </mxCell>
        <mxCell id="2lc9LxFarBskipOYGkbM-67" value="Set SN(x)&lt;br style=&quot;font-size: 15px;&quot;&gt;condition" style="rounded=0;whiteSpace=wrap;html=1;strokeWidth=3;fontSize=15;" vertex="1" parent="WIyWlLk6GJQsqaUBKTNV-1">
          <mxGeometry x="580" y="380" width="100" height="90" as="geometry" />
        </mxCell>
        <mxCell id="2lc9LxFarBskipOYGkbM-71" style="edgeStyle=orthogonalEdgeStyle;rounded=0;orthogonalLoop=1;jettySize=auto;html=1;entryX=0.5;entryY=0;entryDx=0;entryDy=0;strokeWidth=3;fontSize=15;" edge="1" parent="WIyWlLk6GJQsqaUBKTNV-1" source="2lc9LxFarBskipOYGkbM-68" target="2lc9LxFarBskipOYGkbM-70">
          <mxGeometry relative="1" as="geometry" />
        </mxCell>
        <mxCell id="2lc9LxFarBskipOYGkbM-68" value="Generate &lt;br style=&quot;font-size: 15px;&quot;&gt;denominator" style="rounded=1;whiteSpace=wrap;html=1;absoluteArcSize=1;arcSize=14;strokeWidth=3;fontSize=15;" vertex="1" parent="WIyWlLk6GJQsqaUBKTNV-1">
          <mxGeometry x="560" y="540" width="140" height="110" as="geometry" />
        </mxCell>
        <mxCell id="2lc9LxFarBskipOYGkbM-73" style="edgeStyle=orthogonalEdgeStyle;rounded=0;orthogonalLoop=1;jettySize=auto;html=1;entryX=0.5;entryY=0;entryDx=0;entryDy=0;strokeWidth=3;fontSize=15;" edge="1" parent="WIyWlLk6GJQsqaUBKTNV-1" source="2lc9LxFarBskipOYGkbM-70" target="2lc9LxFarBskipOYGkbM-72">
          <mxGeometry relative="1" as="geometry" />
        </mxCell>
        <mxCell id="2lc9LxFarBskipOYGkbM-70" value="Integer to&lt;br style=&quot;font-size: 15px;&quot;&gt;real" style="shape=parallelogram;html=1;strokeWidth=3;perimeter=parallelogramPerimeter;whiteSpace=wrap;rounded=1;arcSize=12;size=0.23;fontSize=15;" vertex="1" parent="WIyWlLk6GJQsqaUBKTNV-1">
          <mxGeometry x="560" y="720" width="140" height="90" as="geometry" />
        </mxCell>
        <mxCell id="2lc9LxFarBskipOYGkbM-72" value="signal to&lt;br style=&quot;font-size: 15px;&quot;&gt;real" style="shape=parallelogram;html=1;strokeWidth=3;perimeter=parallelogramPerimeter;whiteSpace=wrap;rounded=1;arcSize=12;size=0.23;fontSize=15;" vertex="1" parent="WIyWlLk6GJQsqaUBKTNV-1">
          <mxGeometry x="560" y="860" width="140" height="90" as="geometry" />
        </mxCell>
        <mxCell id="2lc9LxFarBskipOYGkbM-76" value="" style="strokeWidth=2;html=1;shape=mxgraph.flowchart.start_2;whiteSpace=wrap;fontSize=16;" vertex="1" parent="WIyWlLk6GJQsqaUBKTNV-1">
          <mxGeometry x="580" y="1000" width="100" height="100" as="geometry" />
        </mxCell>
        <mxCell id="2lc9LxFarBskipOYGkbM-78" style="edgeStyle=orthogonalEdgeStyle;rounded=0;orthogonalLoop=1;jettySize=auto;html=1;entryX=0.5;entryY=0;entryDx=0;entryDy=0;entryPerimeter=0;" edge="1" parent="WIyWlLk6GJQsqaUBKTNV-1" source="2lc9LxFarBskipOYGkbM-72" target="2lc9LxFarBskipOYGkbM-76">
          <mxGeometry relative="1" as="geometry" />
        </mxCell>
        <mxCell id="2lc9LxFarBskipOYGkbM-79" value="1" style="text;html=1;align=center;verticalAlign=middle;resizable=0;points=[];autosize=1;strokeColor=none;fillColor=none;strokeWidth=7;fontSize=16;" vertex="1" parent="WIyWlLk6GJQsqaUBKTNV-1">
          <mxGeometry x="615" y="1035" width="30" height="30" as="geometry" />
        </mxCell>
        <mxCell id="2lc9LxFarBskipOYGkbM-85" style="edgeStyle=orthogonalEdgeStyle;rounded=0;orthogonalLoop=1;jettySize=auto;html=1;entryX=0.5;entryY=0;entryDx=0;entryDy=0;fontSize=15;strokeWidth=3;" edge="1" parent="WIyWlLk6GJQsqaUBKTNV-1" source="2lc9LxFarBskipOYGkbM-81" target="2lc9LxFarBskipOYGkbM-84">
          <mxGeometry relative="1" as="geometry" />
        </mxCell>
        <mxCell id="2lc9LxFarBskipOYGkbM-81" value="" style="strokeWidth=2;html=1;shape=mxgraph.flowchart.start_2;whiteSpace=wrap;fontSize=15;" vertex="1" parent="WIyWlLk6GJQsqaUBKTNV-1">
          <mxGeometry x="290" y="90" width="100" height="100" as="geometry" />
        </mxCell>
        <mxCell id="2lc9LxFarBskipOYGkbM-82" value="1" style="text;html=1;align=center;verticalAlign=middle;resizable=0;points=[];autosize=1;strokeColor=none;fillColor=none;strokeWidth=7;fontSize=15;" vertex="1" parent="WIyWlLk6GJQsqaUBKTNV-1">
          <mxGeometry x="325" y="125" width="30" height="30" as="geometry" />
        </mxCell>
        <mxCell id="2lc9LxFarBskipOYGkbM-84" value="signed num&lt;br&gt;divider denominator" style="shape=parallelogram;html=1;strokeWidth=3;perimeter=parallelogramPerimeter;whiteSpace=wrap;rounded=1;arcSize=12;size=0.23;fontSize=15;" vertex="1" parent="WIyWlLk6GJQsqaUBKTNV-1">
          <mxGeometry x="225" y="250" width="230" height="90" as="geometry" />
        </mxCell>
        <mxCell id="2lc9LxFarBskipOYGkbM-87" style="edgeStyle=orthogonalEdgeStyle;rounded=0;orthogonalLoop=1;jettySize=auto;html=1;entryX=0.5;entryY=0;entryDx=0;entryDy=0;entryPerimeter=0;strokeWidth=3;" edge="1" parent="WIyWlLk6GJQsqaUBKTNV-1" source="2lc9LxFarBskipOYGkbM-84">
          <mxGeometry relative="1" as="geometry">
            <mxPoint x="340" y="420" as="targetPoint" />
          </mxGeometry>
        </mxCell>
        <mxCell id="2lc9LxFarBskipOYGkbM-94" value="" style="verticalLabelPosition=bottom;verticalAlign=top;html=1;shape=process;whiteSpace=wrap;rounded=1;size=0.14;arcSize=6;fontSize=15;strokeWidth=3;" vertex="1" parent="WIyWlLk6GJQsqaUBKTNV-1">
          <mxGeometry x="220" y="420" width="230" height="100" as="geometry" />
        </mxCell>
        <mxCell id="2lc9LxFarBskipOYGkbM-101" style="edgeStyle=orthogonalEdgeStyle;rounded=0;orthogonalLoop=1;jettySize=auto;html=1;entryX=0.5;entryY=0;entryDx=0;entryDy=0;fontSize=15;strokeWidth=3;" edge="1" parent="WIyWlLk6GJQsqaUBKTNV-1" source="2lc9LxFarBskipOYGkbM-97" target="2lc9LxFarBskipOYGkbM-100">
          <mxGeometry relative="1" as="geometry" />
        </mxCell>
        <mxCell id="2lc9LxFarBskipOYGkbM-97" value="the divided number A and B add each." style="whiteSpace=wrap;html=1;verticalAlign=middle;rounded=1;arcSize=6;labelPosition=center;verticalLabelPosition=middle;align=center;fontSize=15;strokeWidth=3;" vertex="1" parent="WIyWlLk6GJQsqaUBKTNV-1">
          <mxGeometry x="250" y="420" width="170" height="100" as="geometry" />
        </mxCell>
        <mxCell id="2lc9LxFarBskipOYGkbM-100" value="According to SN(x) &lt;br style=&quot;font-size: 15px;&quot;&gt;condition rounding value." style="shape=parallelogram;perimeter=parallelogramPerimeter;whiteSpace=wrap;html=1;fixedSize=1;fontSize=15;strokeWidth=3;" vertex="1" parent="WIyWlLk6GJQsqaUBKTNV-1">
          <mxGeometry x="230" y="570" width="210" height="90" as="geometry" />
        </mxCell>
        <mxCell id="2lc9LxFarBskipOYGkbM-102" value="Finish" style="strokeWidth=3;html=1;shape=mxgraph.flowchart.start_2;whiteSpace=wrap;fontSize=15;" vertex="1" parent="WIyWlLk6GJQsqaUBKTNV-1">
          <mxGeometry x="260" y="730" width="150" height="130" as="geometry" />
        </mxCell>
        <mxCell id="2lc9LxFarBskipOYGkbM-103" style="edgeStyle=orthogonalEdgeStyle;rounded=0;orthogonalLoop=1;jettySize=auto;html=1;entryX=0.5;entryY=0;entryDx=0;entryDy=0;entryPerimeter=0;fontSize=15;strokeWidth=3;" edge="1" parent="WIyWlLk6GJQsqaUBKTNV-1" source="2lc9LxFarBskipOYGkbM-100" target="2lc9LxFarBskipOYGkbM-102">
          <mxGeometry relative="1" as="geometry" />
        </mxCell>
      </root>
    </mxGraphModel>
  </diagram>
</mxfile>
